<?xml version="1.0" standalone="no"?>
<!DOCTYPE svg PUBLIC "-//W3C//DTD SVG 20010904//EN"
 "http://www.w3.org/TR/2001/REC-SVG-20010904/DTD/svg10.dtd">
<svg version="1.0" xmlns="http://www.w3.org/2000/svg"
 width="349.000000pt" height="349.000000pt" viewBox="0 0 349.000000 349.000000"
 preserveAspectRatio="xMidYMid meet">
<metadata>
Created by potrace 1.14, written by Peter Selinger 2001-2017
</metadata>
<g transform="translate(0.000000,349.000000) scale(0.100000,-0.100000)"
fill="#000000" stroke="none">
<path d="M24 2082 c-6 -5 -10 -129 -10 -337 l1 -330 240 -3 240 -2 -2 57 c0
32 -2 61 -2 65 -1 4 -75 6 -166 5 -91 -1 -165 0 -166 3 -6 38 -4 102 2 106 5
3 6 11 2 17 -5 7 -8 104 -8 217 l0 205 -61 2 c-33 1 -65 -2 -70 -5z"/>
<path d="M807 1928 c-77 -16 -138 -65 -179 -143 -31 -59 -34 -178 -5 -235 29
-56 76 -103 132 -129 85 -40 239 -22 284 33 14 17 22 89 11 107 -4 6 -26 -2
-56 -18 -88 -49 -211 -31 -245 36 -7 14 -13 31 -14 36 0 6 62 10 165 11 91 1
173 2 184 3 17 1 18 8 14 69 -6 77 -34 142 -81 181 -17 14 -33 26 -36 27 -3 0
-19 6 -34 12 -39 16 -94 20 -140 10z m96 -117 c34 -13 67 -50 67 -76 0 -19 -5
-20 -119 -21 l-119 0 10 28 c21 61 97 93 161 69z"/>
<path d="M1301 1922 c-22 -7 -41 -18 -41 -23 0 -6 -4 -8 -10 -4 -17 11 -62
-72 -65 -120 -1 -25 2 -48 7 -51 4 -3 6 -9 4 -13 -11 -17 53 -61 131 -91 81
-31 98 -46 86 -75 -5 -15 -57 -48 -64 -41 -2 2 -24 6 -48 10 -24 3 -49 10 -55
15 -6 4 -23 11 -37 14 -25 6 -26 5 -27 -47 l-1 -54 51 -21 c95 -39 229 -22
281 37 28 31 45 88 38 127 -9 52 -49 87 -127 113 -95 32 -102 39 -96 88 3 15
47 34 82 34 26 0 78 -17 90 -30 3 -3 11 -6 18 -7 8 -2 12 13 12 51 0 59 -6 67
-64 86 -54 17 -117 18 -165 2z"/>
<path d="M1780 1928 c-19 -5 -44 -10 -54 -13 -11 -2 -36 -23 -56 -45 -32 -35
-36 -46 -35 -88 3 -98 22 -121 135 -161 76 -27 100 -45 93 -70 -14 -54 -130
-55 -210 -3 -22 14 -23 13 -24 -14 -5 -86 0 -95 66 -121 42 -16 159 -16 198 1
63 26 102 77 105 139 5 72 -31 110 -137 148 -62 22 -78 31 -86 54 -8 23 -6 30
14 46 30 24 77 24 136 -1 26 -11 49 -20 51 -20 3 0 4 18 2 40 -1 22 1 42 5 46
10 10 -30 41 -68 54 -46 15 -94 18 -135 8z"/>
<path d="M2296 1932 c-2 -2 -10 -5 -18 -6 -34 -7 -87 -38 -121 -70 -55 -52
-81 -116 -81 -204 -1 -39 1 -72 4 -72 3 0 12 -14 19 -32 21 -47 94 -114 146
-134 67 -25 186 -16 241 18 72 46 124 121 130 192 3 22 6 41 8 43 2 3 -2 25
-9 51 -33 127 -133 209 -261 215 -30 2 -56 2 -58 -1z m122 -144 c22 -17 52
-49 53 -57 0 -3 2 -13 4 -21 2 -8 6 -24 8 -35 7 -30 -18 -95 -47 -122 -50 -47
-137 -42 -186 9 -33 34 -32 32 -35 98 -3 68 18 107 72 135 33 17 105 13 131
-7z"/>
<path d="M3000 1933 c-35 -5 -71 -24 -100 -53 l-25 -24 -3 31 c-3 28 -7 31
-40 35 -21 2 -49 1 -63 -2 -23 -5 -25 -10 -27 -59 0 -29 -3 -56 -6 -59 -3 -3
-1 -12 6 -19 9 -11 9 -16 0 -22 -6 -4 -8 -12 -3 -20 5 -8 5 -26 1 -41 -5 -18
-4 -32 3 -40 9 -10 9 -14 -1 -17 -6 -3 -9 -9 -6 -15 8 -13 8 -138 0 -146 -3
-3 0 -12 7 -20 9 -12 9 -16 0 -19 -7 -2 -9 -11 -6 -19 6 -17 118 -20 128 -3 4
5 6 79 6 163 l-2 153 42 37 c37 32 47 36 82 32 76 -10 82 -24 84 -204 1 -86 2
-165 2 -174 1 -15 11 -18 65 -18 l64 0 -1 183 c0 129 -4 194 -14 223 -26 77
-110 128 -193 117z"/>
<path d="M3396 1552 c-53 -12 -79 -83 -44 -127 25 -32 95 -36 121 -7 19 21 22
73 7 102 -11 21 -56 38 -84 32z"/>
</g>
</svg>
